<?xml version="1.0" encoding="UTF-8" standalone="no"?>
<svg
   xmlns:dc="http://purl.org/dc/elements/1.1/"
   xmlns:cc="http://creativecommons.org/ns#"
   xmlns:rdf="http://www.w3.org/1999/02/22-rdf-syntax-ns#"
   xmlns:svg="http://www.w3.org/2000/svg"
   xmlns="http://www.w3.org/2000/svg"
   xmlns:sodipodi="http://sodipodi.sourceforge.net/DTD/sodipodi-0.dtd"
   xmlns:inkscape="http://www.inkscape.org/namespaces/inkscape"
   viewBox="0 0 453.5433 340.15747"
   version="1.0"
   sodipodi:docname="BANER.svg"
   inkscape:version="1.0 (4035a4fb49, 2020-05-01)"
   sodipodi:version="0.32"
   id="svg2"
   height="340.15747"
   width="453.5433">
  <defs
     id="defs4" />
  <sodipodi:namedview
     inkscape:window-maximized="1"
     inkscape:document-rotation="0"
     inkscape:guide-bbox="true"
     showguides="true"
     inkscape:guide-points="true"
     inkscape:grid-bbox="true"
     inkscape:grid-points="true"
     inkscape:object-paths="false"
     grid_units="mm"
     showgrid="true"
     units="cm"
     height="9.6cm"
     width="12.8cm"
     inkscape:window-y="-8"
     inkscape:window-x="-8"
     inkscape:window-height="1017"
     inkscape:window-width="1920"
     inkscape:current-layer="svg2"
     inkscape:document-units="mm"
     inkscape:cy="204.92901"
     inkscape:cx="-978.15158"
     inkscape:zoom="1.2672938"
     inkscape:pageshadow="2"
     inkscape:pageopacity="0.0"
     borderopacity="1.0"
     bordercolor="#666666"
     pagecolor="#ffffff"
     id="base">
    <sodipodi:guide
       id="guide3573"
       position="56.476527"
       orientation="vertical" />
    <sodipodi:guide
       id="guide3579"
       position="11.035643"
       orientation="horizontal" />
    <sodipodi:guide
       id="guide3886"
       position="24.018753"
       orientation="horizontal" />
    <sodipodi:guide
       id="guide3988"
       position="15.11811,287.24408"
       orientation="horizontal" />
    <sodipodi:guide
       id="guide4081"
       position="303.15561"
       orientation="horizontal" />
    <inkscape:grid
       empspacing="5"
       empopacity="0.38"
       opacity="0.15"
       empcolor="#3f3fff"
       color="#3f3fff"
       spacingy="7.5590551"
       spacingx="7.5590551"
       originy="0"
       originx="0"
       type="xygrid"
       id="GridFromPre046Settings" />
  </sodipodi:namedview>
  <metadata
     id="metadata7">
    <rdf:RDF>
      <cc:Work
         rdf:about="">
        <dc:format>image/svg+xml</dc:format>
        <dc:type
           rdf:resource="http://purl.org/dc/dcmitype/StillImage" />
        <dc:title></dc:title>
      </cc:Work>
    </rdf:RDF>
  </metadata>
  <g
     id="layer1"
     inkscape:groupmode="layer"
     inkscape:label="Layer 1">
    <path
       id="path160"
       d="M 28.256746,44.531287 V 7.5294273 H 227.87206 427.48737 V 44.531287 81.533147 H 227.87206 28.256746 Z"
       style="fill:#43b883;fill-opacity:1;stroke:#43b883;stroke-width:8.81788;stroke-opacity:1" />
    <path
       d="m 56.365816,34.132852 c 21.80488,-0.769456 43.619662,-0.943233 65.436054,-0.98074 27.65188,-0.121879 55.30375,0.142913 82.95394,0.423062 13.12865,0.173031 26.25792,0.272902 39.38761,0.313942 0,0 5.67031,-6.757617 5.67031,-6.757617 v 0 c -13.30529,0.04137 -26.61017,0.142336 -39.91446,0.313943 -27.88688,0.277822 -55.7754,0.543849 -83.66393,0.423062 -21.26783,-0.03667 -42.534616,-0.191355 -63.790173,-0.980741 0,0 -6.079351,7.245089 -6.079351,7.245089 z"
       id="path1003"
       style="fill:#35495e;fill-opacity:1;stroke:#43b883;stroke-width:13.5836;stroke-opacity:1" />
    <path
       d="M 22.677165,-9.259375e-5 V 37.001861 H 438.42521 V -9.259375e-5 Z"
       style="fill:#35495e;fill-opacity:1;stroke:#000000;stroke-width:1px;stroke-linecap:butt;stroke-linejoin:miter;stroke-opacity:1"
       id="path3192" />
  </g>
  <path
     style="fill:#43b883;fill-opacity:1;stroke:#43b883;stroke-width:8.81788;stroke-opacity:1"
     d="M 430.86614,44.560915 V 7.5590551 H 630.48145 830.09676 V 44.560915 81.562778 H 630.48145 430.86614 Z"
     id="path160-1" />
  <path
     style="fill:#35495e;fill-opacity:1;stroke:#43b883;stroke-width:13.5836;stroke-opacity:1"
     id="path1003-4"
     d="m 464.55479,34.132855 c 21.80488,-0.76946 43.61966,-0.94323 65.43605,-0.98074 27.65188,-0.12188 55.30375,0.14291 82.95394,0.42306 13.12865,0.17303 26.25792,0.2729 39.38761,0.31394 0,0 5.67031,-6.75761 5.67031,-6.75761 v 0 c -13.30529,0.0414 -26.61017,0.14233 -39.91446,0.31394 -27.88688,0.27782 -55.7754,0.54385 -83.66393,0.42306 -21.26782,-0.0367 -42.53461,-0.19135 -63.79017,-0.98074 0,0 -6.07935,7.24509 -6.07935,7.24509 z" />
  <path
     id="path3192-4"
     style="fill:#35495e;fill-opacity:1;stroke:#000000;stroke-width:1px;stroke-linecap:butt;stroke-linejoin:miter;stroke-opacity:1"
     d="M 423.30616,4.8e-6 V 37.001955 H 839.0542 V 4.8e-6 Z" />
  <path
     style="fill:#43b883;fill-opacity:1;stroke:#43b883;stroke-width:8.81788;stroke-opacity:1"
     d="M 831.49606,44.560914 V 7.5590551 h 199.61524 199.6154 V 44.560914 81.562774 H 1031.1113 831.49606 Z"
     id="path160-0" />
  <path
     style="fill:#35495e;fill-opacity:1;stroke:#43b883;stroke-width:13.5836;stroke-opacity:1"
     id="path1003-9"
     d="m 865.18471,34.132851 c 21.80488,-0.769456 43.61966,-0.943233 65.43605,-0.98074 27.65188,-0.121879 55.30375,0.142913 82.95394,0.423062 13.1286,0.173031 26.2579,0.272902 39.3876,0.313942 0,0 5.6703,-6.757617 5.6703,-6.757617 v 0 c -13.3053,0.04137 -26.6102,0.142336 -39.9145,0.313943 -27.88682,0.277822 -55.77534,0.543849 -83.66387,0.423062 -21.26783,-0.03667 -42.53461,-0.191355 -63.79017,-0.980741 0,0 -6.07935,7.245089 -6.07935,7.245089 z" />
  <path
     id="path3192-62"
     style="fill:#35495e;fill-opacity:1;stroke:#000000;stroke-width:1px;stroke-linecap:butt;stroke-linejoin:miter;stroke-opacity:1"
     d="M 823.93608,-5e-7 V 37.001952 H 1239.6841 V -5e-7 Z" />
  <path
     style="fill:#43b883;fill-opacity:1;stroke:#43b883;stroke-width:8.81788;stroke-opacity:1"
     d="M -376.55345,44.560915 V 7.5590551 H -176.93814 22.677165 V 44.560915 81.562779 H -176.93814 -376.55345 Z"
     id="path160-7" />
  <path
     style="fill:#35495e;fill-opacity:1;stroke:#43b883;stroke-width:13.5836;stroke-opacity:1"
     id="path1003-5"
     d="m -342.8648,34.132852 c 21.80488,-0.769456 43.61966,-0.943233 65.43605,-0.98074 27.65188,-0.121879 55.30375,0.142913 82.95394,0.423062 13.12865,0.173031 26.25792,0.272902 39.38761,0.313942 0,0 5.67031,-6.757617 5.67031,-6.757617 v 0 c -13.30529,0.04137 -26.61017,0.142336 -39.91446,0.313943 -27.88688,0.277822 -55.7754,0.543849 -83.66393,0.423062 -21.26782,-0.03667 -42.53461,-0.191355 -63.79017,-0.980741 0,0 -6.07935,7.245089 -6.07935,7.245089 z" />
  <path
     id="path3192-8"
     style="fill:#35495e;fill-opacity:1;stroke:#000000;stroke-width:1px;stroke-linecap:butt;stroke-linejoin:miter;stroke-opacity:1"
     d="M -384.11343,5e-7 V 37.001953 H 31.634605 V 5e-7 Z" />
  <path
     style="fill:#43b883;fill-opacity:1;stroke:#43b883;stroke-width:8.81788;stroke-opacity:1"
     d="M -769.62432,44.560914 V 7.5590551 h 199.61531 199.61531 v 37.0018589 37.00186 h -199.61531 -199.61531 z"
     id="path160-71" />
  <path
     style="fill:#35495e;fill-opacity:1;stroke:#43b883;stroke-width:13.5836;stroke-opacity:1"
     id="path1003-48"
     d="m -735.93567,34.132851 c 21.80488,-0.769456 43.61966,-0.943233 65.43605,-0.98074 27.65188,-0.121879 55.30375,0.142913 82.95394,0.423062 13.12865,0.173031 26.25792,0.272902 39.38761,0.313942 0,0 5.67031,-6.757617 5.67031,-6.757617 v 0 c -13.30529,0.04137 -26.61017,0.142336 -39.91446,0.313943 -27.88688,0.277822 -55.7754,0.543849 -83.66393,0.423062 -21.26783,-0.03667 -42.53461,-0.191355 -63.79017,-0.980741 0,0 -6.07935,7.245089 -6.07935,7.245089 z" />
  <path
     id="path3192-9"
     style="fill:#35495e;fill-opacity:1;stroke:#000000;stroke-width:1px;stroke-linecap:butt;stroke-linejoin:miter;stroke-opacity:1"
     d="M -777.1843,-9e-7 V 37.001952 h 415.74804 V -9e-7 Z" />
  <path
     style="fill:#43b883;fill-opacity:1;stroke:#43b883;stroke-width:8.81788;stroke-opacity:1"
     d="M 1224.5669,44.560914 V 7.5590551 h 199.6153 199.6153 v 37.0018589 37.00186 h -199.6153 -199.6153 z"
     id="path160-11" />
  <path
     style="fill:#35495e;fill-opacity:1;stroke:#43b883;stroke-width:13.5836;stroke-opacity:1"
     id="path1003-0"
     d="m 1258.2556,34.132845 c 21.8049,-0.769451 43.6196,-0.94323 65.436,-0.98074 27.6519,-0.12187 55.3038,0.14292 82.954,0.42307 13.1286,0.17303 26.2579,0.272899 39.3876,0.31394 0,0 5.6703,-6.75762 5.6703,-6.75762 v 0 c -13.3053,0.0414 -26.6102,0.142339 -39.9145,0.31394 -27.8868,0.277829 -55.7754,0.543849 -83.6639,0.423069 -21.2678,-0.0367 -42.5346,-0.19136 -63.7902,-0.980739 0,0 -6.0793,7.24508 -6.0793,7.24508 z" />
  <path
     id="path3192-48"
     style="fill:#35495e;fill-opacity:1;stroke:#000000;stroke-width:1px;stroke-linecap:butt;stroke-linejoin:miter;stroke-opacity:1"
     d="M 1217.007,-5.5e-6 V 37.001954 h 415.748 V -5.5e-6 Z" />
  <path
     style="fill:#43b883;fill-opacity:1;stroke:#43b883;stroke-width:8.81788;stroke-opacity:1"
     d="M -1148.9755,44.560823 V 7.5589627 h 199.61535 199.61531 V 44.560823 81.562687 h -199.61531 -199.61535 z"
     id="path160-06" />
  <path
     style="fill:#35495e;fill-opacity:1;stroke:#43b883;stroke-width:13.5836;stroke-opacity:1"
     id="path1003-08"
     d="m -1115.2868,34.13276 c 21.8049,-0.769456 43.6196,-0.943233 65.436,-0.98074 27.6519,-0.121879 55.30379,0.142913 82.95398,0.423062 13.12865,0.173031 26.25792,0.272902 39.38761,0.313942 0,0 5.67031,-6.757617 5.67031,-6.757617 v 0 c -13.30529,0.04137 -26.61017,0.142336 -39.91446,0.313943 -27.88688,0.277822 -55.77544,0.543849 -83.66394,0.423062 -21.2678,-0.03667 -42.5346,-0.191355 -63.7902,-0.980741 0,0 -6.0793,7.245089 -6.0793,7.245089 z" />
  <path
     id="path3192-1"
     style="fill:#35495e;fill-opacity:1;stroke:#000000;stroke-width:1px;stroke-linecap:butt;stroke-linejoin:miter;stroke-opacity:1"
     d="M -1156.5354,-9.2296875e-5 V 37.001861 h 415.748 V -9.2296875e-5 Z" />
</svg>
